# xmcd
#
# Track frame offsets:
#	150
#	12177
#	27521
#	41349
#	55886
#	69394
#	83298
#	97627
#	112580
#	127398
#	138930
#	152207
#	168177
#	178829
#	191446
#	203835
#	219121
#	234115
#	248569
#	265504
#	284385
#	297644
#	310646
#
# Disc length: 4354 seconds
#
# Revision: 1
# Processed by: cddbd v1.5.1PL2 Copyright (c) Steve Scherf et al.
# Submitted via: audiograbber 1.83.01
#
DISCID=28110017
DTITLE=RAIMUNDO SOLDADO - SÓ AS ANTIGAS
DYEAR=1900
DGENRE=
TTITLE0=ABRAÇANDO VOCÊ
TTITLE1=VOCÊ GOSTA DE MIM
TTITLE2=NANÁ
TTITLE3=NÃO VÁ NESSA
TTITLE4=O CARECA ENGRAÇADO
TTITLE5=MINHA GAROTA
TTITLE6=SEGREDO DO AMOR
TTITLE7=BREGA DO CELULAR 9822126
TTITLE8=DEVOLVA O MEU RETRATO
TTITLE9=PAGODE DA NANÁ
TTITLE10=AMOR NÃO SE FAZ ASSIM
TTITLE11=MENINA DA PRAIA
TTITLE12=NÃO QUERO MAIS VOCÊ
TTITLE13=CONQUISTANDO O MUNDO
TTITLE14=OS DIAS DA SEMANA
TTITLE15=PALAVRA DE REI
TTITLE16=SANFONA BRANCA
TTITLE17=EU SEMPRE FUI ASSIM
TTITLE18=BEM NÃO SE PAGA COM MAL
TTITLE19=NÃO TEM JEITO QUE DÊ JEITO
TTITLE20=VANERÃO CABOCLO
TTITLE21=AQUELE MOMENTO
TTITLE22=MULHER ORGULHOSA
EXTD=
EXTT0=
EXTT1=
EXTT2=
EXTT3=
EXTT4=
EXTT5=
EXTT6=
EXTT7=
EXTT8=
EXTT9=
EXTT10=
EXTT11=
EXTT12=
EXTT13=
EXTT14=
EXTT15=
EXTT16=
EXTT17=
EXTT18=
EXTT19=
EXTT20=
EXTT21=
EXTT22=
PLAYORDER=
